# xmcd
#
# Track frame offsets:
#	150
#	16187
#	28197
#	42835
#	56362
#	69762
#	82250
#	93047
#	101667
#	115945
#	136597
#	147735
#	159712
#	174005
#	187165
#	196932
#	212577
#	222690
#	234890
#	246705
#
# Disc length: 3444 seconds
#
# Revision: 1
# Processed by: cddbd v1.5.1PL0 Copyright (c) Steve Scherf et al.
# Submitted via: audiograbber 1.83.01
#
DISCID=1a0d7214
DTITLE=Various Artist - Country Sunrise
DYEAR=2000
DGENRE=Country
TTITLE0=Anne Murray - Both Sides Now
TTITLE1=Billie Jo Spears - Misty Blue
TTITLE2=Don Gibson - I Can't Stop Loving You
TTITLE3=Kenny Rogers - Ruby Don't Take Your Love To Town
TTITLE4=George Jones - Almost Persuaded
TTITLE5=Willie Nelson - The Shelter of Your Arms
TTITLE6=Hank Locklin - Send Me The Pillow You Dream On
TTITLE7=Waylon Jennings - Love's Gonna Live Here
TTITLE8=Freddy Fender - Wasted Days and Wasted Nights
TTITLE9=Red Sovine - Daddy
TTITLE10=Roy Druskey - I Can't Help It
TTITLE11=Buddy Owens - How Can I Tell My Dreams Not To Sleep With You
TTITLE12=Jerry Lee Lewis - Careless Hands
TTITLE13=Dottie West - D.I.V.O.R.C.E.
TTITLE14=Barbara Mandrell - Release Me
TTITLE15=Don Williams - Tears
TTITLE16=Jim Reeves - He'll Have To Go
TTITLE17=Loretta Lynn - Me and Bobby McGee
TTITLE18=Patsy Kline - Today, Tomorrow and Forever
TTITLE19=Roger Miller - Little Green Apples
EXTD=
EXTT0=
EXTT1=
EXTT2=
EXTT3=
EXTT4=
EXTT5=
EXTT6=
EXTT7=
EXTT8=
EXTT9=
EXTT10=
EXTT11=
EXTT12=
EXTT13=
EXTT14=
EXTT15=
EXTT16=
EXTT17=
EXTT18=
EXTT19=
PLAYORDER=
